<svg xmlns="http://www.w3.org/2000/svg" fill="none" aria-hidden="true" class="bqfGyf" viewBox="0 0 238 134"><path fill="#1E8E3E" d="m116.595 13.94-14.941-8.316c.001.047 1.13 2.536 1.13 2.536l-1.88.453.659 1.487-3.248.861 14.918 8.345c1.875-1.207 3.165-3.23 3.362-5.365Z" class="VnOHwf-Wvd9Cc"/><path fill="#5F6368" d="M98.88 5.8a2.02 2.02 0 0 1-1.601 2.654l-1.995-2.507a.349.349 0 0 1 .332-.568l3.264.42Z"/><path stroke="#5F6368" stroke-linecap="round" stroke-linejoin="round" stroke-width="1.5" d="m101.789 5.97-6.302-.323 3.44 5.448"/><path fill="#DADCE0" d="m107 103.3 76 .657V88.522c0-30.672-22.932-55.565-51.217-55.565l-23.924 9.13L107 103.3Z"/><path fill="#DADCE0" d="M97 102.957h23v-9h-13.813c-5.089-.064-9.187 4.015-9.187 9ZM177.995 92.04c.46-.88 1.481-1.032 2.373-.719 10.031 3.34 20.541-.31 30.068-2.857 4.735-1.29 10.049-2.77 14.751-.206 4.307 2.322 6.728 6.59 7.176 11.05.439 4.219-.331 9.405-4.969 11.297-3.934 1.625-8.135.143-12.234-.115-2.095-.117-3.955.141-5.574 1.398-1.495 1.179-2.707 2.53-4.571 3.174-3.886 1.421-7.351-1.393-10.324-3.365-.733-.448-1.465-.895-2.266-1.23-.633-.232-1.3-.407-2.083-.265-1.02.151-1.91.847-2.753 1.339-1.184.671-2.537 1.239-3.965 1.297-1.484.023-2.896-.453-3.837-1.571-.808-.958-1.261-2.242-1.58-3.367a24.521 24.521 0 0 1-.981-8.27c-.009-.239.129-.465.232-.634a9.216 9.216 0 0 1 1.525-4.647c-.057-.035-.147-.013-.204-.047-.858-.37-1.142-1.55-.784-2.262ZM100.597 31.2l-.505-3.494 5.267-1.056c.462-1.851 1.181-5.037 2.039-6.69.594-1.124 1.255-2.181 2.047-3.107-1.321-4.1-2.113-6.969-1.783-11.332.132-1.19.462-2.513 1.783-2.843 1.188-.331 2.336.081 3.195.742 1.782 1.455 2.813 2.259 4.332 3.978a39.87 39.87 0 0 1 3.433 4.628c2.84-.396 5.679-.595 8.584-.66 1.057 0 2.047 0 3.103.197.595-3.636 1.387-5.804 3.368-8.977.66-1.058 1.518-2.05 2.905-1.72 1.189.265 2.113 1.812 2.113 1.812.941 1.126 1.783 3.53 2.377 5.712.66 2.512.99 5.157 1.122 7.802 0 .198 0 .33-.066.462 4.028 2.777 7.065 5.951 8.782 7.273.726.596 8.782 6.15-3.037 6.678 4.425.596 18.977 11.37-2.482 7.734.265.992 11.924 10.647-9.139 10.052-1.321-.066-35.193 6.017-43.314-13.95l3.763-.53a2.488 2.488 0 0 0 2.113-2.71Z"/><path fill="#5F6368" d="m100.093 27.706.505 3.428c.198 1.323-.793 2.58-2.113 2.777l-3.659.834c-.858-2.116-1.402-3.138-1.6-5.849l6.867-1.19Z"/><path stroke="#5F6368" stroke-linecap="round" stroke-linejoin="round" stroke-miterlimit="10" stroke-width="2" d="M117.954 72.957c.096 7.147.048 14.228-.193 21.375-7.481.947-8.52 5.871-8.761 8.625M118.04 99.463c-1.86.342-3.352 2.716-3.535 3.624M104 98.957c-1.916.662-3 3.13-3 4"/><path fill="#5F6368" d="M121.145 27.862a1.025 1.025 0 0 1-1.1-.944 1.025 1.025 0 1 1 2.043-.158 1.025 1.025 0 0 1-.943 1.102ZM109.598 26.651a1.025 1.025 0 1 1-.157-2.045 1.025 1.025 0 0 1 .157 2.045Z"/><path stroke="#5F6368" stroke-linecap="round" stroke-width="2" d="M141.516 38.339c1.527.704 5.029 1.925 6.812 1.176M135.566 39.291c.585.9 2.515 2.855 5.565 3.468"/><path fill="#5F6368" d="M41 102h29V88H41c4.194 4.167 4.194 9.833 0 14Z"/><path fill="#DADCE0" d="M13.295 88H39c-4.674-4.037-4.767-9.767-.187-13.805L39 74H13.295c-4.393 4.167-4.393 9.767 0 14Z"/><path stroke="#DADCE0" stroke-linecap="round" stroke-width="2" d="M32 81h47M32 87h47"/><path stroke="#5F6368" stroke-linecap="round" stroke-width="2" d="M1 95h62M1 101h62"/><path stroke="#DADCE0" stroke-linecap="round" stroke-width="2" d="M32 75h47"/><path stroke="#5F6368" stroke-linecap="round" stroke-width="2" d="M1 89h62"/><path fill="#CEEAD6" d="M7.29 67.951c-1.877 0-3.401 0-3.401-3.4V24.855c0-1.877 1.524-3.4 3.4-3.4h61.746c1.876 0 3.4 1.524 3.4 3.4L7.29 67.95Z" class="VnOHwf-Ysl7Fe"/><path stroke="#5F6368" stroke-miterlimit="10" stroke-width="2" d="M4.071 68.135h64.233a3.528 3.528 0 0 0 3.518-3.518v-39.46a3.528 3.528 0 0 0-3.518-3.518H7.59a3.528 3.528 0 0 0-3.518 3.518v42.978Z"/><path fill="#5F6368" d="M92.79 68.269H3v6.14h89.79a3.07 3.07 0 0 0 0-6.14Z"/><path stroke="#5F6368" stroke-linecap="round" stroke-width="2" d="m112 7.957 2 6M137 6.957l1 6"/><path fill="#5F6368" d="M118.487 39.877c-.741 7.756-2.453 22.223-2.453 22.223l-19.89-1.833c2.079-6.727 3.958-12.406 6.225-20.39h16.118Z"/><path fill="#fff" stroke="#5F6368" stroke-linecap="round" stroke-linejoin="round" stroke-width="2" d="M115.955 41.196c-.815 3.211-2.33 8.565-3.721 13.381-.792 2.744-1.541 5.305-2.092 7.18l-.647 2.194-17.6-3.35c.802-2.036 1.594-4 2.393-5.98 1.669-4.132 3.366-8.337 5.235-13.425h16.432Z"/><path fill="#DADCE0" d="M108.418 42.943c-7.674.768-10.517-3.19-10.517-3.19h19.727s-1.535 2.423-9.21 3.19Z"/><path stroke="#5F6368" stroke-linecap="round" stroke-width="2" d="M119.279 33.835c-1.168 1.435-3.851 6.378 1.831 10.009"/><path fill="#DADCE0" d="M98 36.957h17v4l-17-.4v-3.6Z"/><path stroke="#5F6368" stroke-linecap="round" stroke-width="2" d="M99.197 41.873c3.646 1.875 12.409 3.99 18.299-2.546"/></svg>