<svg xmlns="http://www.w3.org/2000/svg" fill="none" aria-hidden="true" class="nViTIe" viewBox="0 0 181 143"><path fill="#CEEAD6" d="M160.156 107.599c1.608-7.581 6.662-14.244 12.788-16.848.996-.382 2.221-.612 2.757.307.383.689.23 1.685-.076 2.603-2.374 7.888-9.343 13.708-16.082 13.402" class="VnOHwf-Ysl7Fe"/><path fill="#CEEAD6" d="M160.615 108.441c.153-7.734-3.293-15.469-8.731-19.45-.842-.613-1.991-1.15-2.756-.307-.536.612-.613 1.608-.536 2.527.536 8.194 6.049 15.546 12.635 16.848M160.156 123.298c1.608-7.581 6.662-14.244 12.788-16.847.996-.383 2.221-.613 2.757.306.383.689.23 1.685-.076 2.604-2.374 7.887-9.343 13.708-16.082 13.401M159.083 124.906c.153-7.734-3.293-15.469-8.73-19.451-.842-.613-1.991-1.149-2.757-.306-.536.612-.612 1.608-.536 2.527.536 8.194 6.05 15.546 12.636 16.847" class="VnOHwf-Ysl7Fe"/><path stroke="#5F6368" stroke-linecap="round" stroke-width="2" d="M73.39 120.848h26.038"/><path stroke="#5F6368" stroke-width="2" d="M164.521 82.558c-1.277 4.85-3.487 16.342-4.212 23.356-1.149 11.105-.894 18.252-1.149 22.974"/><path fill="#DADCE0" d="M164.291 89.144c4.229 0 7.658-3.532 7.658-7.888s-3.429-7.888-7.658-7.888c-4.23 0-7.658 3.532-7.658 7.888s3.428 7.888 7.658 7.888ZM84.189 139.227c28.64-.153 83.931-2.068 87.683-2.297 5.974-.307 10.798-3.676 8.577-7.122-2.221-3.446-48.168-2.451-63.408-.919 1.532.536-32.852 10.338-32.852 10.338Z"/><path fill="#DADCE0" d="M6.077 109.207c3.6 7.964 9.037 15.01 16.082 20.523 3.37 2.681 9.42 4.902 16.158 6.816 22.132 6.203 45.489 6.203 67.62-.077 6.663-1.837 12.559-4.135 15.929-6.739 7.045-5.513 12.482-12.635 16.082-20.523h-58.43L78.061 121h-47.48l-.23-11.793H6.078Z"/><path stroke="#5F6368" stroke-miterlimit="10" stroke-width="2" d="M71.63 30.866c30.451 0 55.137-6.686 55.137-14.933S102.081 1 71.63 1C41.178 1 16.492 7.686 16.492 15.933S41.178 30.866 71.63 30.866Z"/><path stroke="#5F6368" stroke-miterlimit="10" stroke-width="2" d="m126.767 15.933 14.167 56.745c5.361 21.443-2.297 44.034-19.451 57.512-3.37 2.603-9.343 4.901-15.929 6.739-22.131 6.203-45.182 4.901-67.62.076-30.249-6.509-40.97-42.884-35.61-64.327l14.168-56.745"/><path stroke="#5F6368" stroke-miterlimit="10" stroke-width="2" d="M74.54 120.924H30.2l-2.987-71.373c-.077-2.68 1.991-4.9 4.595-4.9h39.974c2.451 0 4.519 1.99 4.595 4.518l2.834 66.854c.076 2.68-2.068 4.901-4.672 4.901Z"/><path fill="#5F6368" d="m26.83 46.642-5.36 75.201h8.04l-2.68-75.201ZM45.21 91.9c3.383 0 6.126-2.812 6.126-6.28 0-3.468-2.743-6.28-6.127-6.28-3.383 0-6.126 2.812-6.126 6.28 0 3.468 2.743 6.28 6.126 6.28ZM45.21 112.347c3.383 0 6.126-2.811 6.126-6.279s-2.743-6.28-6.127-6.28c-3.383 0-6.126 2.812-6.126 6.28 0 3.468 2.743 6.279 6.126 6.279ZM64.354 91.9c3.383 0 6.126-2.812 6.126-6.28 0-3.468-2.743-6.28-6.126-6.28-3.384 0-6.127 2.812-6.127 6.28 0 3.468 2.743 6.28 6.127 6.28ZM64.354 112.347c3.383 0 6.126-2.811 6.126-6.279s-2.743-6.28-6.126-6.28c-3.384 0-6.127 2.812-6.127 6.28 0 3.468 2.743 6.279 6.127 6.279ZM67.724 72.22h-29.1a3.072 3.072 0 0 1-3.064-3.064v-14.32a3.072 3.072 0 0 1 3.064-3.063h29.1a3.072 3.072 0 0 1 3.063 3.063v14.32a3.072 3.072 0 0 1-3.063 3.063Z"/><path fill="#DADCE0" d="M92.689 52.462c2.537 0 4.594-2.092 4.594-4.672 0-2.58-2.057-4.67-4.594-4.67-2.538 0-4.595 2.09-4.595 4.67s2.057 4.672 4.595 4.672ZM122.555 57.21c2.537 0 4.595-2.092 4.595-4.671 0-2.58-2.058-4.672-4.595-4.672-2.538 0-4.595 2.092-4.595 4.672 0 2.58 2.057 4.67 4.595 4.67ZM114.131 43.042c2.538 0 4.595-2.092 4.595-4.671 0-2.58-2.057-4.672-4.595-4.672s-4.595 2.092-4.595 4.672c0 2.58 2.057 4.671 4.595 4.671Z"/><path fill="#1E8E3E" d="M124.24 76.508c0 14.473-11.793 26.267-26.267 26.267-12.865 0-23.586-9.267-25.807-21.443-.46-2.527 1.532-4.824 4.059-4.824h48.015Z" class="VnOHwf-Wvd9Cc"/><path fill="#1E8E3E" d="M135.574 79.341c0 1.532-3.14 2.834-5.667 2.834-2.527 0-8.73-1.302-8.73-2.834 0-1.531 6.203-2.833 8.73-2.833 2.604 0 5.667 1.302 5.667 2.833Z" class="VnOHwf-Wvd9Cc"/><path fill="#1E8E3E" d="M131.438 69.08c1.073 1.071-.229 4.211-1.991 5.972-1.838 1.838-7.122 5.284-8.194 4.212-1.072-1.072 2.374-6.356 4.212-8.194 1.762-1.76 4.825-3.063 5.973-1.99Z" class="VnOHwf-Wvd9Cc"/><path fill="#fff" d="M84.035 88.225a4.059 4.059 0 1 0 0-8.118 4.059 4.059 0 0 0 0 8.118ZM92.076 79.265c2.144 6.433 1.761 13.401-1.302 19.451-.46.996.996 1.838 1.455.843 3.216-6.433 3.753-13.938 1.455-20.754-.306-1.072-1.99-.612-1.608.46Z"/><path fill="#fff" d="M94.986 85.237c.077-.076.23-.076.307-.153.153-.076-.154.077 0 0 .076 0 .153-.076.23-.076.306-.077.612-.23.918-.307.843-.23 1.226-.23 2.068-.306.383 0 .766 0 1.149.077h.153c.076 0 .153 0 .306.076.153.077.383.077.536.153.613.154 1.149.536 1.532.996.153.23.383.612.459.842.153.46.153.766.153 1.225 0 .843-.153 1.532-.612 2.221l-.077.153c-.076.077-.076.154-.153.154-.077.076-.383.306-.383.382-.153.154-.612.383-.919.537-.076.076 0 0 0 0-.076 0-.076.076-.153.076s-.153.077-.306.077c-.153.076-.383.076-.536.153-.154.077-.383.077-.536.077-.077 0 0 0 0 0h-2.068c-.153 0 0 0 0 0H96.9c-.153 0-.383-.077-.536-.154-.153-.076-.383-.076-.536-.153-.077 0-.153-.076-.23-.076.153.076 0 0-.077 0-.153-.077-.23-.154-.383-.23-.153-.077.077.076 0 0l-.153-.153c-.766-.843-1.99.383-1.225 1.225.996 1.072 2.91 1.378 4.288 1.302 1.838 0 3.753-.536 5.055-1.915 1.455-1.608 1.761-4.135.842-6.126-.842-1.761-2.757-2.527-4.595-2.68-1.761-.153-3.752.153-5.284.995-.919.613 0 2.144.92 1.608Z"/><path fill="#5F6368" d="M84.036 86.08a1.915 1.915 0 1 0 0-3.83 1.915 1.915 0 0 0 0 3.83Z"/></svg>