<svg xmlns="http://www.w3.org/2000/svg" fill="none" aria-hidden="true" class="Fnu4gf" viewBox="0 0 241 149"><path stroke="#5F6368" stroke-width="2" d="m138.19 145.143-1.355.521a4.057 4.057 0 0 1-5.316-2.5L82.427 8.374a4.054 4.054 0 0 1 2.502-5.312l1.355-.52a4.058 4.058 0 0 1 5.315 2.5l49.092 134.789c.73 2.187-.312 4.583-2.501 5.312Z"/><path stroke="#5F6368" stroke-linecap="round" stroke-width="2" d="M76.66 10.569c1.543 1.683 6.732 4.207 11.781 2.524C98.54 9.727 96.856 2.574 96.856 2.574"/><path fill="#CEEAD6" fill-rule="evenodd" d="M60.122 147.643c34.605-12.5 52.428-50.728 39.816-85.207-12.508-34.583-50.76-52.29-85.364-39.791l45.548 124.998Zm5.733-49.166C77.32 94.311 83.261 81.498 79.092 70.04c-4.169-11.562-16.885-17.5-28.454-13.229l15.217 41.666Z" class="VnOHwf-Ysl7Fe" clip-rule="evenodd"/><path stroke="#fff" stroke-linecap="round" stroke-width="2" d="m58.147 128.38-5.89 2.525m0-20.617-6.732 2.524m-.842-20.196-5.47 2.103m-.841-20.196-5.47 2.104m-.42-20.196-5.892 2.103M25.75 38.76l-5.89 2.104"/><path stroke="#5F6368" stroke-linecap="round" stroke-linejoin="round" stroke-width="2" d="M87.6 128.38c6.872-7.153 18.26-27.181 15.568-50.07-2.693-22.89-13.465-36.185-18.514-39.972"/><path stroke="#5F6368" stroke-width="2" d="M225.952 147.956h-67.958c-3.44 0-6.254-2.813-6.254-6.25V73.79c0-3.438 2.814-6.25 6.254-6.25h67.958c3.439 0 6.253 2.813 6.253 6.25v67.916c0 3.541-2.71 6.25-6.253 6.25Z"/><path fill="#5F6368" d="M232.205 73.79c0-3.438-2.814-6.25-6.253-6.25h-67.958c-3.44 0-6.254 2.813-6.254 6.25v27.187l80.465-19.479V73.79Z"/><path fill="#fff" stroke="#5F6368" stroke-width="2" d="M191.66 131.497c13.297 0 24.077-10.773 24.077-24.062 0-13.289-10.78-24.062-24.077-24.062-13.297 0-24.077 10.773-24.077 24.062 0 13.289 10.78 24.062 24.077 24.062Z"/><path stroke="#5F6368" stroke-linecap="round" stroke-width="2" d="m211.303 90.091-4.208 3.366m-15.568-10.94v4.629m-16.83 1.683 3.366 4.628m-12.623 13.464 5.47.842m7.153 14.727-3.366 4.207m16.83 2.104v4.628m14.306-10.939 3.787 4.207m3.787-18.934h5.049"/><path fill="#5F6368" d="M191.66 114.935a7.502 7.502 0 0 0 7.504-7.5c0-4.142-3.36-7.5-7.504-7.5a7.502 7.502 0 0 0-7.505 7.5c0 4.143 3.36 7.5 7.505 7.5ZM10.718 130.977c1.98 0 1.98-3.125 0-3.125s-1.98 3.125 0 3.125Z"/><path stroke="#5F6368" stroke-linecap="round" stroke-width="2" d="M19.437 106.921 8.497 82.097M13.126 93.072c0-2.145.42-3.828 1.6-5.931 2.361-4.208 7.436-3.367 8.077-.801.421 1.683-.503 5.429-3.027 6.732-2.946 1.52-4.967 1.683-5.809 1.683M13.233 93.624c-1.348-1.667-2.733-2.712-4.974-3.606-4.48-1.79-7.898 2.055-6.784 4.454.73 1.573 2.366 3.333 6.586 3.333 3.315 0 4.921-1.814 5.576-2.343"/><path fill="#DADCE0" d="M26.56 148.997c13.183 0 23.87-10.68 23.87-23.854s-10.687-23.854-23.87-23.854c-13.181 0-23.868 10.68-23.868 23.854s10.687 23.854 23.869 23.854Z"/><path fill="#5F6368" d="M16.867 139.622c1.98 0 1.98-3.125 0-3.125s-1.98 3.125 0 3.125ZM21.245 131.81c1.98 0 1.98-3.125 0-3.125s-1.98 3.125 0 3.125ZM29.375 138.685c1.98 0 1.98-3.125 0-3.125s-1.98 3.125 0 3.125ZM23.538 143.477c1.98 0 1.98-3.125 0-3.125s-1.98 3.125 0 3.125ZM18.326 102.748c-12.403 4.479-18.761 18.229-14.28 30.625 1.251 3.541 3.336 6.562 5.942 9.062l24.077-39.895c-5.003-1.667-10.423-1.771-15.739.208Z"/><path stroke="#5F6368" stroke-linecap="round" stroke-width="2" d="M149.451 35.813c.982 5.33 5.47 15.316 13.885 12.623 8.415-2.693 5.33-13.324 2.525-18.513"/><path fill="#1E8E3E" d="m167.374 31.082-18.448 6.354c-1.772-5.104.938-10.625 6.045-12.396 5.107-1.77 10.631.938 12.403 6.042Z" class="VnOHwf-Wvd9Cc"/><path fill="#DADCE0" d="m199.581 23.062-5.107-14.063a13.26 13.26 0 0 0 3.648-3.958c.417-.73.834-1.562.834-2.396 0-.833-.626-1.77-1.459-1.77-.313 0-.626.104-.938.208-2.085.833-3.44 2.812-4.587 4.791l-2.188.834c.417-2.188-.209-4.584-1.668-6.25-.209-.209-.313-.313-.625-.417-.522-.208-1.043.417-1.355.938-1.251 2.187-1.355 4.895-.522 7.291l-17.51 6.354c-2.293.834-3.544 3.438-2.71 5.73l.834 2.395c.729 2.083 3.022 3.125 5.107 2.396l2.71 7.396c-2.814.52-5.42 2.187-7.817 3.854-1.042.729-2.085 1.562-1.981 2.916.105 1.146.939 1.98 1.981 2.396 1.876.625 3.648-.104 5.42-.729 1.563-.625 3.231-1.25 4.794-1.875l.417 1.25a14.881 14.881 0 0 0-5.107 11.25c0 4.791 2.189 9.062 5.733 11.77-1.772.209-3.648.73-5.212 1.563-.521.208-.938.52-1.146 1.042-.417.833.312 1.875 1.25 2.187.938.313 1.876.104 2.815-.104 1.771-.313 9.484-.833 13.445-1.563h27.621c8.338 0 15.009-9.687 15.009-18.02 0-5-2.502-9.48-6.358-12.187-.313-5.834 5.316-4.896 7.087-4.584 2.189.521 4.378 2.188 6.463.625.834-.625 1.25-1.666 1.459-2.604 5.42-22.291-35.23-32.708-40.337-6.666Z"/><path fill="#5F6368" d="M185.302 16.083a1.459 1.459 0 1 0 .001-2.917 1.459 1.459 0 0 0-.001 2.917Z"/><path stroke="#5F6368" stroke-linecap="round" stroke-width="2" d="M211.303 27.398c2.103-1.683 7.657-4.544 13.043-2.524 5.386 2.02 7.854 5.89 8.415 7.573m-21.458-12.202c1.963-2.244 7.741-5.89 15.147-2.524 4.909 2.231 10.519 7.153 12.623 13.464m-38.71-9.256c-.421 1.542-1.262 5.554-1.262 9.256 0 3.703.841 8.836 1.262 10.94M165.172 18.108l3.061-1.194M172.172 67.37h44.179M135.145 49.698l-7.994 15.989m-10.94-53.857 2.524 24.825"/></svg>